<?xml version="1.0" standalone="no"?>
<!DOCTYPE svg PUBLIC "-//W3C//DTD SVG 20010904//EN"
 "http://www.w3.org/TR/2001/REC-SVG-20010904/DTD/svg10.dtd">
<svg version="1.0" xmlns="http://www.w3.org/2000/svg"
 width="512.000000pt" height="512.000000pt" viewBox="0 0 512.000000 512.000000"
 preserveAspectRatio="xMidYMid meet">
<metadata>
Created by potrace 1.14, written by Peter Selinger 2001-2017
</metadata>
<g transform="translate(0.000000,512.000000) scale(0.100000,-0.100000)"
fill="#000000" stroke="none">
<path d="M1588 4875 c-248 -39 -452 -115 -643 -240 -107 -69 -393 -286 -531
-401 -221 -185 -414 -403 -414 -468 0 -14 8 -34 18 -44 32 -32 294 -107 445
-129 21 -3 46 -6 55 -8 9 -2 44 -4 77 -4 l60 -2 33 -48 c61 -90 187 -198 338
-289 210 -128 310 -271 364 -521 14 -67 18 -137 20 -330 1 -135 3 -262 5 -281
2 -19 6 -73 10 -120 4 -47 8 -96 10 -110 73 -580 250 -1072 506 -1409 l65 -86
-320 0 c-177 1 -332 -1 -344 -3 -30 -6 -61 -55 -54 -88 2 -13 16 -33 30 -44
25 -20 42 -20 1796 -18 l1771 3 47 23 c62 31 129 97 159 158 l24 49 0 770 0
770 -27 76 c-57 161 -108 224 -383 468 -82 74 -184 164 -225 201 -41 37 -106
93 -145 126 -38 32 -72 61 -75 64 -16 17 -138 117 -220 180 -102 78 -229 202
-326 315 -32 39 -62 72 -65 75 -8 6 -299 397 -355 477 -22 32 -102 150 -179
263 -76 113 -161 229 -189 258 -150 155 -491 310 -786 356 -19 4 -48 9 -65 12
-66 13 -400 12 -487 -1z"/>
</g>
</svg>
